<svg width="375" height="375" viewBox="0 0 375 375" fill="none" xmlns="http://www.w3.org/2000/svg">
<path d="M28.836 216.421C12.9327 200.518 12.9327 174.734 28.836 158.83L56.1918 131.475C72.0951 115.571 97.8794 115.571 113.783 131.475L169.934 187.626L113.783 243.777C97.8794 259.68 72.0951 259.68 56.1918 243.777L28.836 216.421Z" fill="#EE964B"/>
<path d="M131.06 114.197C115.157 98.2941 115.157 72.5097 131.06 56.6064L158.416 29.2507C174.319 13.3474 200.103 13.3474 216.007 29.2507L243.362 56.6064C259.266 72.5097 259.266 98.2941 243.362 114.197L187.211 170.349L131.06 114.197Z" fill="#F95738"/>
<path d="M204.489 187.626L260.64 131.475C276.543 115.571 302.327 115.571 318.231 131.475L345.586 158.83C361.49 174.734 361.49 200.518 345.586 216.421L318.231 243.777C302.327 259.68 276.543 259.68 260.64 243.777L204.489 187.626Z" fill="#083D77"/>
<path d="M131.06 318.645C115.157 302.742 115.157 276.958 131.06 261.054L187.211 204.903L243.362 261.054C259.266 276.958 259.266 302.742 243.362 318.645L216.007 346.001C200.103 361.905 174.319 361.905 158.416 346.001L131.06 318.645Z" fill="#8EC24B"/>
<g style="mix-blend-mode:overlay" opacity="0.5" filter="url(#filter0_f_310_846)">
<path d="M278.347 185.81C278.347 235.053 237.544 274.972 187.211 274.972C136.878 274.972 96.0757 235.053 96.0757 185.81C96.0757 136.568 136.878 96.6483 187.211 96.6483C237.544 96.6483 278.347 136.568 278.347 185.81ZM134.79 185.81C134.79 214.135 158.26 237.097 187.211 237.097C216.163 237.097 239.633 214.135 239.633 185.81C239.633 157.486 216.163 134.524 187.211 134.524C158.26 134.524 134.79 157.486 134.79 185.81Z" fill="white" fill-opacity="0.65"/>
</g>
<g style="mix-blend-mode:soft-light">
<path d="M278.347 185.81C278.347 235.053 237.544 274.972 187.211 274.972C136.878 274.972 96.0757 235.053 96.0757 185.81C96.0757 136.568 136.878 96.6483 187.211 96.6483C237.544 96.6483 278.347 136.568 278.347 185.81ZM134.79 185.81C134.79 214.135 158.26 237.097 187.211 237.097C216.163 237.097 239.633 214.135 239.633 185.81C239.633 157.486 216.163 134.524 187.211 134.524C158.26 134.524 134.79 157.486 134.79 185.81Z" fill="white"/>
</g>
<defs>
<filter id="filter0_f_310_846" x="87.9311" y="88.5037" width="198.56" height="194.613" filterUnits="userSpaceOnUse" color-interpolation-filters="sRGB">
<feFlood flood-opacity="0" result="BackgroundImageFix"/>
<feBlend mode="normal" in="SourceGraphic" in2="BackgroundImageFix" result="shape"/>
<feGaussianBlur stdDeviation="4.0723" result="effect1_foregroundBlur_310_846"/>
</filter>
</defs>
</svg>
