<svg width="96" height="97" viewBox="0 0 96 97" fill="none" xmlns="http://www.w3.org/2000/svg">
<g filter="url(#filter0_d_326_73)">
<rect x="4.32397" y="0.501526" width="87.635" height="87.635" rx="11.9922" fill="#667391"/>
<path d="M45.6297 72.1478C61.3091 72.1478 74.0198 59.7626 74.0198 44.4845C74.0198 29.2065 61.3091 16.8213 45.6297 16.8213C29.9503 16.8213 17.2396 29.2065 17.2396 44.4845C17.2396 59.7626 29.9503 72.1478 45.6297 72.1478Z" fill="#47A3CA"/>
<mask id="mask0_326_73" style="mask-type:luminance" maskUnits="userSpaceOnUse" x="17" y="16" width="62" height="61">
<path d="M47.7455 76.2712C64.5935 76.2712 78.2514 62.9629 78.2514 46.5462C78.2514 30.1296 64.5935 16.8213 47.7455 16.8213C30.8976 16.8213 17.2396 30.1296 17.2396 46.5462C17.2396 62.9629 30.8976 76.2712 47.7455 76.2712Z" fill="white"/>
</mask>
<g mask="url(#mask0_326_73)">
<path fill-rule="evenodd" clip-rule="evenodd" d="M62.4129 37.1827C62.4129 37.1827 56.1692 34.6998 54.3095 35.9413C52.4497 37.1827 53.4432 43.0446 53.4432 43.0446C53.4432 43.0446 50.6715 46.9152 52.0574 48.951C53.4432 50.9868 57.2928 50.287 59.4556 52.0827C61.6184 53.8784 60.7198 57.1012 60.7198 57.1012L60.1967 60.8638C60.1967 60.8638 65.9897 58.3344 67.6589 54.6902C69.3281 51.0461 68.7874 45.3329 68.7874 45.3329L72.1687 42.3458L75.1421 32.95L64.7079 29.6619L63.5583 24.6505L56.0968 26.7113L55.4225 32.1772L61.1534 34.0261L62.4129 37.1827ZM15.8351 40.3511C15.8351 40.3511 17.9455 39.0399 18.2272 39.0191C20.3882 38.859 27.9187 39.3066 29.8877 36.5252C32.1132 33.3813 33.9684 29.2181 33.9684 29.2181L33.8939 26.015L22.257 23.2322L15.8351 40.3511ZM34.1293 66.5113L35.1152 55.9019L27.1946 49.9936C27.1946 49.9936 26.7372 45.2655 32.4863 44.5973C38.2353 43.9292 41.7773 47.394 41.7773 47.394C41.7773 47.394 44.0597 50.8356 43.2085 53.1736C42.3573 55.5115 40.1551 59.0126 40.1551 59.0126C40.1551 59.0126 39.9804 62.9901 38.4878 64.8475C36.9952 66.7049 34.1293 66.5113 34.1293 66.5113Z" fill="#2CC669"/>
</g>
<path fill-rule="evenodd" clip-rule="evenodd" d="M74.758 58.1286V20.4767C74.758 18.167 72.8394 16.2993 70.4727 16.2993C68.1108 16.2993 66.1874 18.1696 66.1874 20.4767V58.1286C63.6256 59.5725 61.9021 62.2714 61.9021 65.3625C61.9021 69.9747 65.7393 73.7137 70.4727 73.7137C75.2061 73.7137 79.0433 69.9747 79.0433 65.3625C79.0433 62.2714 77.3197 59.5725 74.758 58.1286Z" fill="#D8D8D8"/>
<path d="M70.4726 71.6259C74.0227 71.6259 76.9006 68.8217 76.9006 65.3625C76.9006 61.9033 74.0227 59.0991 70.4726 59.0991C66.9226 59.0991 64.0447 61.9033 64.0447 65.3625C64.0447 68.8217 66.9226 71.6259 70.4726 71.6259Z" fill="#E43535"/>
<path fill-rule="evenodd" clip-rule="evenodd" d="M68.33 29.87H72.6153V61.1869H68.33V29.87Z" fill="#E43535"/>
</g>
<defs>
<filter id="filter0_d_326_73" x="0.323975" y="0.501526" width="95.635" height="95.635" filterUnits="userSpaceOnUse" color-interpolation-filters="sRGB">
<feFlood flood-opacity="0" result="BackgroundImageFix"/>
<feColorMatrix in="SourceAlpha" type="matrix" values="0 0 0 0 0 0 0 0 0 0 0 0 0 0 0 0 0 0 127 0" result="hardAlpha"/>
<feOffset dy="4"/>
<feGaussianBlur stdDeviation="2"/>
<feComposite in2="hardAlpha" operator="out"/>
<feColorMatrix type="matrix" values="0 0 0 0 0.227938 0 0 0 0 0.153125 0 0 0 0 0.35 0 0 0 0.19 0"/>
<feBlend mode="normal" in2="BackgroundImageFix" result="effect1_dropShadow_326_73"/>
<feBlend mode="normal" in="SourceGraphic" in2="effect1_dropShadow_326_73" result="shape"/>
</filter>
</defs>
</svg>
